:FULLY-SPECIFIED
:FORCE-ALL-JOINTS-BE-3DOF
:DEGREES
1835
root 6.36116 13.9641 27.821 1057.69 55.6885 335.875
lfemur -52.7501 24.7424 1.59935
ltibia 63.4949 0 0
lfoot -2.56154 -6.71605 0
ltoes -18.2848 0 0
rfemur 3.22212 -6.18654 18.1841
rtibia 49.2571 0 0
rfoot -26.861 -29.2547 0
rtoes -27.9674 0 0
lowerback 14.0469 4.21521 6.55733
upperback -0.458457 7.1794 4.52104
thorax -8.19955 3.34075 -0.324528
lowerneck -3.58214 10.5481 3.47568
upperneck 7.06893 14.1666 -2.37206
head 3.53401 7.06343 -0.708897
lclavicle -2.90125e-14 -3.22237e-14 0
lhumerus 61.7664 14.668 107.289
lradius 10.2942 0 0
lwrist -83.0496 0 0
lhand -33.0467 42.0316 0
lfingers 7.12502 0 0
lthumb -6.25856 71.8954 0
rclavicle -2.90125e-14 -3.22237e-14 0
rhumerus -70.9392 10.2239 -82.424
rradius 124.425 0 0
rwrist -142.196 0 0
rhand -62.4862 -353.236 0
rfingers 7.12502 0 0
rthumb -34.4617 255.925 0
1836
root 6.43034 13.951 27.8257 1057.88 55.4355 335.913
lfemur -52.9966 25.2116 1.60798
ltibia 64.2288 0 0
lfoot -3.13488 -6.90063 0
ltoes -19.0004 0 0
rfemur 3.39261 -6.01023 18.1283
rtibia 49.0083 0 0
rfoot -26.7203 -29.3831 0
rtoes -28.2006 0 0
lowerback 14.0449 4.29128 6.55158
upperback -0.475856 7.28476 4.5605
thorax -8.21778 3.39223 -0.300417
lowerneck -3.48993 10.7292 3.63294
upperneck 7.0216 14.4126 -2.53659
head 3.52681 7.18404 -0.779678
lclavicle -2.94884e-14 -3.38279e-14 0
lhumerus 61.8744 14.7836 107.471
lradius 10.2736 0 0
lwrist -83.4976 0 0
lhand -32.869 41.9168 0
lfingers 7.12502 0 0
lthumb -6.08703 71.7871 0
rclavicle -2.94884e-14 -3.38279e-14 0
rhumerus -71.2171 10.3511 -82.5731
rradius 124.577 0 0
rwrist -141.017 0 0
rhand -62.0149 -359.087 0
rfingers 7.12502 0 0
rthumb -34.0179 257.636 0
1837
root 6.49953 13.9378 27.8304 1058.07 55.1825 335.952
lfemur -53.243 25.6809 1.61661
ltibia 64.9628 0 0
lfoot -3.70822 -7.08521 0
ltoes -19.716 0 0
rfemur 3.5631 -5.83392 18.0725
rtibia 48.7594 0 0
rfoot -26.5797 -29.5116 0
rtoes -28.4338 0 0
lowerback 14.0429 4.36735 6.54582
upperback -0.493256 7.39012 4.59996
thorax -8.23601 3.44371 -0.276307
lowerneck -3.39771 10.9103 3.7902
upperneck 6.97427 14.6586 -2.70111
head 3.51961 7.30465 -0.850458
lclavicle -2.99643e-14 -3.54321e-14 0
lhumerus 61.9824 14.8991 107.653
lradius 10.253 0 0
lwrist -83.9457 0 0
lhand -32.6913 41.802 0
lfingers 7.12502 0 0
lthumb -5.9155 71.6788 0
rclavicle -2.99643e-14 -3.54321e-14 0
rhumerus -71.4951 10.4784 -82.7222
rradius 124.729 0 0
rwrist -139.838 0 0
rhand -61.5436 -364.937 0
rfingers 7.12502 0 0
rthumb -33.5741 259.347 0
1838
root 6.56872 13.9247 27.835 1058.27 54.9295 335.991
lfemur -53.4894 26.1502 1.62524
ltibia 65.6967 0 0
lfoot -4.28156 -7.26979 0
ltoes -20.4317 0 0
rfemur 3.73358 -5.65761 18.0167
rtibia 48.5106 0 0
rfoot -26.4391 -29.6401 0
rtoes -28.667 0 0
lowerback 14.0409 4.44342 6.54007
upperback -0.510656 7.49549 4.63942
thorax -8.25423 3.49519 -0.252197
lowerneck -3.30549 11.0913 3.94746
upperneck 6.92694 14.9045 -2.86564
head 3.5124 7.42525 -0.921238
lclavicle -3.04402e-14 -3.70364e-14 0
lhumerus 62.0904 15.0147 107.835
lradius 10.2324 0 0
lwrist -84.3937 0 0
lhand -32.5136 41.6873 0
lfingers 7.12502 0 0
lthumb -5.74397 71.5705 0
rclavicle -3.04402e-14 -3.70364e-14 0
rhumerus -71.773 10.6057 -82.8713
rradius 124.881 0 0
rwrist -138.66 0 0
rhand -61.0724 -370.788 0
rfingers 7.12502 0 0
rthumb -33.1303 261.057 0
1839
root 6.63791 13.9115 27.8397 1058.46 54.6765 336.029
lfemur -53.7359 26.6194 1.63387
ltibia 66.4307 0 0
lfoot -4.8549 -7.45436 0
ltoes -21.1473 0 0
rfemur 3.90407 -5.48129 17.9608
rtibia 48.2618 0 0
rfoot -26.2985 -29.7686 0
rtoes -28.9002 0 0
lowerback 14.039 4.51949 6.53431
upperback -0.528055 7.60085 4.67888
thorax -8.27246 3.54667 -0.228087
lowerneck -3.21327 11.2724 4.10472
upperneck 6.8796 15.1505 -3.03016
head 3.5052 7.54586 -0.992018
lclavicle -3.09162e-14 -3.86406e-14 0
lhumerus 62.1984 15.1303 108.017
lradius 10.2118 0 0
lwrist -84.8418 0 0
lhand -32.3358 41.5725 0
lfingers 7.12502 0 0
lthumb -5.57244 71.4622 0
rclavicle -3.09162e-14 -3.86406e-14 0
rhumerus -72.051 10.733 -83.0204
rradius 125.033 0 0
rwrist -137.481 0 0
rhand -60.6011 -376.639 0
rfingers 7.12502 0 0
rthumb -32.6865 262.768 0
1840
root 6.7071 13.8984 27.8444 1058.65 54.4235 336.068
lfemur -53.9823 27.0887 1.6425
ltibia 67.1646 0 0
lfoot -5.42824 -7.63894 0
ltoes -21.8629 0 0
rfemur 4.07456 -5.30498 17.905
rtibia 48.013 0 0
rfoot -26.1579 -29.897 0
rtoes -29.1335 0 0
lowerback 14.037 4.59556 6.52856
upperback -0.545455 7.70622 4.71834
thorax -8.29068 3.59815 -0.203977
lowerneck -3.12105 11.4535 4.26198
upperneck 6.83227 15.3965 -3.19469
head 3.498 7.66647 -1.0628
lclavicle -3.13921e-14 -4.02448e-14 0
lhumerus 62.3064 15.2459 108.199
lradius 10.1912 0 0
lwrist -85.2898 0 0
lhand -32.1581 41.4577 0
lfingers 7.12502 0 0
lthumb -5.40091 71.3538 0
rclavicle -3.13921e-14 -4.02448e-14 0
rhumerus -72.3289 10.8603 -83.1695
rradius 125.185 0 0
rwrist -136.302 0 0
rhand -60.1298 -382.489 0
rfingers 7.12502 0 0
rthumb -32.2427 264.479 0
